<svg width="40" height="40" viewBox="0 0 40 40" fill="none" xmlns="http://www.w3.org/2000/svg">
<g clip-path="url(#clip0_107_29)">
<path d="M0.458279 21.106C0.458748 21.1065 0.459137 21.107 0.459682 21.1075L8.62406 29.2325C9.2357 29.8412 10.225 29.8389 10.8338 29.2272C11.4426 28.6156 11.4402 27.6263 10.8286 27.0175L5.34703 21.5625L38.4375 21.5625C39.3005 21.5625 40 20.863 40 20C40 19.137 39.3005 18.4375 38.4375 18.4375L5.34711 18.4375L10.8285 12.9825C11.4402 12.3738 11.4425 11.3845 10.8337 10.7728C10.2249 10.161 9.23554 10.1589 8.62398 10.7675L0.459606 18.8925C0.459137 18.893 0.458744 18.8935 0.458199 18.894C-0.153755 19.5048 -0.151802 20.4973 0.458279 21.106Z" fill="#93BB1C"/>
</g>
<defs>
<clipPath id="clip0_107_29">
<rect width="40" height="40" fill="white" transform="translate(40 40) rotate(-180)"/>
</clipPath>
</defs>
</svg>
