<svg width="20" height="20" viewBox="0 0 20 20" fill="none" xmlns="http://www.w3.org/2000/svg">
<g clip-path="url(#clip0_122_305)">
<path d="M5.0625 0.28125C4.94141 0.390625 4.46484 1.26172 4.26953 1.73437C4.14063 2.04687 4.125 2.12891 4.12109 2.42187C4.12109 2.71875 4.13281 2.77734 4.23828 2.96484C4.46484 3.37109 4.93359 3.62891 5.375 3.58203C6.10156 3.50781 6.60156 2.82812 6.42969 2.15234C6.30078 1.64453 5.61719 0.316406 5.44531 0.238281C5.29688 0.171875 5.17188 0.1875 5.0625 0.28125Z" fill="#93BB1C"/>
<path d="M9.76908 0.300781C9.62846 0.429688 9.10502 1.42578 8.94487 1.87109C8.78862 2.30078 8.78471 2.58984 8.93705 2.91016C9.14408 3.34375 9.51127 3.57422 9.99955 3.57422C10.4878 3.57422 10.8355 3.35938 11.0542 2.92188C11.2847 2.45703 11.2027 2.0625 10.6441 0.984375C10.3238 0.367188 10.1871 0.195312 9.99955 0.195312C9.92533 0.195312 9.8394 0.234375 9.76908 0.300781Z" fill="#93BB1C"/>
<path d="M14.5474 0.242188C14.3755 0.324219 13.6567 1.74609 13.5552 2.20312C13.4731 2.57422 13.6255 3.01172 13.9341 3.28125C14.1724 3.49219 14.395 3.57422 14.727 3.57422C15.2036 3.57422 15.5591 3.35547 15.7895 2.91797C15.8638 2.78516 15.8794 2.69141 15.8794 2.42188C15.8794 2.11328 15.8677 2.0625 15.6919 1.66016C15.4575 1.11719 15.063 0.398438 14.938 0.28125C14.8325 0.191406 14.6841 0.175781 14.5474 0.242188Z" fill="#93BB1C"/>
<path d="M4.37891 4.64062C4.30469 4.67969 4.21094 4.77344 4.17188 4.84766C4.10547 4.96875 4.10156 5.12109 4.10156 7.15625V9.33594H5.27344H6.44531V7.13672C6.44531 5.02734 6.44141 4.9375 6.36719 4.81641C6.23047 4.58984 6.14453 4.57031 5.28516 4.57031C4.60938 4.57031 4.49219 4.57812 4.37891 4.64062Z" fill="#93BB1C"/>
<path d="M9.11328 4.62891C9.04297 4.66016 8.94922 4.74219 8.90625 4.8125C8.83203 4.9375 8.82812 5.00391 8.82812 7.13672V9.33594H10H11.1719V7.13672C11.1719 5.00391 11.168 4.9375 11.0938 4.8125C10.9609 4.59766 10.8398 4.57031 9.99219 4.57031C9.43359 4.57422 9.20703 4.58594 9.11328 4.62891Z" fill="#93BB1C"/>
<path d="M13.8008 4.64844C13.5469 4.80078 13.5547 4.73047 13.5547 7.14844V9.33594H14.7266H15.8985V7.15625C15.8985 5.12109 15.8946 4.96875 15.8282 4.84766C15.6914 4.59766 15.5899 4.57031 14.7071 4.57031C14 4.57031 13.9141 4.57812 13.8008 4.64844Z" fill="#93BB1C"/>
<path d="M2.53516 10.7422C2.21094 10.7969 1.92969 10.9922 1.78516 11.2656C1.70312 11.418 1.69922 11.4727 1.69922 12.3633C1.69922 13.2891 1.69922 13.3008 1.79688 13.4766C1.85938 13.5859 1.96484 13.6914 2.08594 13.7695C2.25781 13.875 2.30859 13.8867 2.57422 13.8828C2.82422 13.8789 3.01953 13.8359 3.79297 13.6055C4.88672 13.2773 5.15625 13.2266 5.87891 13.2305C6.54688 13.2305 6.83594 13.2813 7.89453 13.5938C9.07031 13.9414 9.20312 13.9648 10 13.9648C10.7969 13.9648 10.9297 13.9414 12.1055 13.5938C13.1641 13.2813 13.4531 13.2305 14.1211 13.2305C14.8438 13.2266 15.1211 13.2773 16.2109 13.6055C16.9805 13.8359 17.1758 13.8789 17.4258 13.8828C17.6914 13.8867 17.7422 13.875 17.9141 13.7695C18.0352 13.6914 18.1406 13.5859 18.2031 13.4766C18.3008 13.3008 18.3008 13.2891 18.3008 12.3633C18.3008 11.4727 18.2969 11.418 18.2148 11.2656C18.1133 11.0742 17.9336 10.9141 17.6953 10.8047L17.5195 10.7227L10.1172 10.7188C6.04688 10.7148 2.63281 10.7266 2.53516 10.7422Z" fill="#93BB1C"/>
<path d="M5.34376 14.418C5.06251 14.4531 4.63673 14.5664 3.51563 14.9062C3.08594 15.0352 2.97657 15.0547 2.60938 15.0547L2.18751 15.0586V16.8438V18.6328H1.33985C0.574225 18.6328 0.476569 18.6406 0.332038 18.7109C-0.0976496 18.918 -0.101556 19.5391 0.328132 19.7422C0.449225 19.8008 1.28126 19.8047 10 19.8047C18.7188 19.8047 19.5508 19.8008 19.6719 19.7422C20.1016 19.5391 20.0977 18.918 19.668 18.7109C19.5234 18.6406 19.4258 18.6328 18.6602 18.6328H17.8125V16.8438V15.0547L17.4922 15.0703C17.1367 15.0859 17.0742 15.0703 15.7188 14.6758C14.3555 14.2773 13.9531 14.2852 12.3359 14.75C11.0977 15.1016 10.6406 15.1758 9.78516 15.1445C9.04298 15.1172 8.72657 15.0586 7.73438 14.7656C7.29298 14.6367 6.81251 14.5039 6.66016 14.4766C6.28907 14.3984 5.70704 14.375 5.34376 14.418Z" fill="#93BB1C"/>
</g>
<defs>
<clipPath id="clip0_122_305">
<rect width="20" height="20" fill="white"/>
</clipPath>
</defs>
</svg>
