<svg width="15" height="15" viewBox="0 0 15 15" fill="none" xmlns="http://www.w3.org/2000/svg">
<g clip-path="url(#clip0_94_944)">
<path d="M3.55957 0.0410156C3.45117 0.0908203 3.35449 0.193359 3.31348 0.301758C3.2959 0.348633 3.28125 0.55957 3.28125 0.776367V1.16602L2.42578 1.17773C1.58496 1.18652 1.56152 1.18945 1.34473 1.26562C0.735352 1.47949 0.310547 1.90137 0.0966797 2.50488L0.0146484 2.73926V8.08594V13.4326L0.0966797 13.667C0.310547 14.2705 0.732422 14.6895 1.34473 14.9062L1.56738 14.9854H7.5H13.4326L13.667 14.9033C14.2705 14.6895 14.6895 14.2676 14.9062 13.6553L14.9854 13.4326V8.08594V2.73926L14.9062 2.5166C14.6895 1.9043 14.2705 1.48242 13.667 1.26855C13.4355 1.18945 13.4268 1.18652 12.5771 1.17773L11.7217 1.16602L11.7129 0.732422C11.7041 0.257812 11.6895 0.213867 11.502 0.0761719C11.3877 -0.00878906 11.1123 -0.00878906 10.998 0.0761719C10.8105 0.213867 10.7959 0.257812 10.7871 0.735352L10.7783 1.17188H7.5H4.22168L4.21289 0.735352C4.2041 0.260742 4.18945 0.213867 4.00781 0.0791016C3.9082 0.00585938 3.67676 -0.0146484 3.55957 0.0410156ZM3.28711 2.42871C3.2959 2.77441 3.32227 2.8418 3.49805 2.9707C3.6123 3.05566 3.8877 3.05566 4.00195 2.9707C4.17773 2.8418 4.2041 2.77441 4.21289 2.42871L4.22461 2.10938H7.5H10.7754L10.7871 2.42871C10.7959 2.77441 10.8223 2.8418 10.998 2.9707C11.1123 3.05566 11.3877 3.05566 11.502 2.9707C11.6777 2.8418 11.7041 2.77441 11.7129 2.42871L11.7246 2.10645L12.5186 2.11523L13.3154 2.12402L13.4824 2.20605C13.6934 2.30859 13.8633 2.47852 13.9658 2.68945C14.0479 2.85645 14.0479 2.85938 14.0566 3.53613L14.0654 4.21875H7.50293H0.9375V3.59473C0.9375 3.13184 0.949219 2.93262 0.978516 2.82715C1.06934 2.53125 1.32422 2.26465 1.62012 2.16211C1.75195 2.11816 1.88086 2.1123 2.52539 2.10938H3.27539L3.28711 2.42871ZM14.0566 9.23438L14.0479 13.3154L13.9688 13.4766C13.8662 13.6846 13.6846 13.8662 13.4795 13.9688L13.3154 14.0479H7.5H1.68457L1.52344 13.9688C1.31543 13.8662 1.13379 13.6846 1.03125 13.4795L0.952148 13.3154L0.943359 9.23438L0.9375 5.15625H7.5H14.0625L14.0566 9.23438Z" fill="#a7d41f"/>
</g>
<defs>
<clipPath id="clip0_94_944">
<rect width="15" height="15" fill="white"/>
</clipPath>
</defs>
</svg>
