<svg width="16" height="16" viewBox="0 0 16 16" fill="none" xmlns="http://www.w3.org/2000/svg">
<g clip-path="url(#clip0_477_72)">
<path d="M8.00014 0.639893C3.94222 0.639893 0.640137 3.94197 0.640137 7.99989C0.640137 12.0578 3.94222 15.3599 8.00014 15.3599C12.0581 15.3599 15.3601 12.0578 15.3601 7.99989C15.3601 3.94197 12.0581 0.639893 8.00014 0.639893ZM10.7873 10.3327C10.9121 10.4575 10.9121 10.6623 10.7873 10.7871C10.7233 10.8479 10.6433 10.8799 10.5601 10.8799C10.4769 10.8799 10.3969 10.8479 10.3329 10.7871L8.00014 8.45429L5.66734 10.7871C5.60334 10.8479 5.52334 10.8799 5.44014 10.8799C5.35694 10.8799 5.27694 10.8479 5.21294 10.7871C5.08814 10.6623 5.08814 10.4575 5.21294 10.3327L7.54574 7.99989L5.21294 5.66709C5.08814 5.54229 5.08814 5.33749 5.21294 5.21269C5.33774 5.08789 5.54254 5.08789 5.66734 5.21269L8.00014 7.54549L10.3329 5.21269C10.4577 5.08789 10.6625 5.08789 10.7873 5.21269C10.9121 5.33749 10.9121 5.54229 10.7873 5.66709L8.45454 7.99989L10.7873 10.3327Z" fill="#A2A2A2"/>
</g>
<defs>
<clipPath id="clip0_477_72">
<rect width="16" height="16" fill="white"/>
</clipPath>
</defs>
</svg>
