<svg width="24" height="24" viewBox="0 0 24 24" fill="none" xmlns="http://www.w3.org/2000/svg">
<path d="M24 12C24 18.6274 18.6274 24 12 24C5.37258 24 0 18.6274 0 12C0 5.37258 5.37258 0 12 0C18.6274 0 24 5.37258 24 12Z" fill="#2B3131"/>
<path d="M24 12C24 18.6274 18.6274 24 12 24C5.37258 24 0 18.6274 0 12C0 5.37258 5.37258 0 12 0C18.6274 0 24 5.37258 24 12Z" fill="url(#paint0_linear_531_521)"/>
<path d="M24 12C24 18.6274 18.6274 24 12 24C5.37258 24 0 18.6274 0 12C0 5.37258 5.37258 0 12 0C18.6274 0 24 5.37258 24 12Z" fill="#93BB1C"/>
<path d="M22.9714 12C22.9714 18.0594 18.0594 22.9714 12 22.9714C5.94065 22.9714 1.02857 18.0594 1.02857 12C1.02857 5.94065 5.94065 1.02857 12 1.02857C18.0594 1.02857 22.9714 5.94065 22.9714 12Z" fill="#F5F5F5"/>
<path d="M22.9714 12C22.9714 18.0594 18.0594 22.9714 12 22.9714C5.94065 22.9714 1.02857 18.0594 1.02857 12C1.02857 5.94065 5.94065 1.02857 12 1.02857C18.0594 1.02857 22.9714 5.94065 22.9714 12Z" fill="url(#paint1_linear_531_521)"/>
<path d="M6.85714 10.2857L5.14286 12L10.2857 17.1429L18.5143 8.91429L16.8 7.2L10.2857 13.7143L6.85714 10.2857Z" fill="#93BB1C"/>
<defs>
<linearGradient id="paint0_linear_531_521" x1="1.93461e-07" y1="12.0816" x2="24" y2="12.0816" gradientUnits="userSpaceOnUse">
<stop stop-color="#222727"/>
<stop offset="1" stop-color="#191D1D"/>
</linearGradient>
<linearGradient id="paint1_linear_531_521" x1="1.93461e-07" y1="12.0816" x2="24" y2="12.0816" gradientUnits="userSpaceOnUse">
<stop stop-color="#222727"/>
<stop offset="1" stop-color="#191D1D"/>
</linearGradient>
</defs>
</svg>
