<svg width="21" height="21" viewBox="0 0 21 21" fill="none" xmlns="http://www.w3.org/2000/svg">
<path d="M10.4063 0.40625C4.88901 0.40625 0.40625 4.88901 0.40625 10.4063C0.40625 15.9235 4.88901 20.4063 10.4063 20.4063C15.9235 20.4063 20.4063 15.9235 20.4063 10.4063C20.4063 4.88901 15.9235 0.40625 10.4063 0.40625ZM10.4063 1.44073C15.3545 1.44073 19.3718 5.45797 19.3718 10.4063C19.3718 15.3545 15.3545 19.3718 10.4063 19.3718C5.45797 19.3718 1.44073 15.3545 1.44073 10.4063C1.44073 5.45797 5.45797 1.44073 10.4063 1.44073ZM14.0333 7.81129C13.9019 7.8156 13.7684 7.87183 13.6649 7.97528L10.0614 11.7165L8.18204 9.69942C7.99239 9.49252 7.66494 9.47508 7.45804 9.66474C7.25115 9.85439 7.2337 10.1822 7.42336 10.3891L9.68225 12.82C9.7857 12.9235 9.90625 12.9925 10.0614 12.9925C10.1994 12.9925 10.3371 12.9407 10.4406 12.8372L14.4061 8.68211C14.5958 8.47522 14.5958 8.14776 14.3889 7.95811C14.2941 7.85466 14.1648 7.80698 14.0333 7.81129Z" fill="#93BB1C"/>
</svg>
