<svg width="25" height="25" viewBox="0 0 25 25" fill="none" xmlns="http://www.w3.org/2000/svg">
<path d="M22.104 3.66351C21.8723 3.75829 19.3975 6.15934 15.2905 10.2664L8.835 16.7008L6.12854 14.0049C4.63315 12.5306 3.26413 11.2458 3.09563 11.151C2.01094 10.6034 0.789353 10.993 0.252275 12.0672C-0.0636536 12.6991 -0.0847155 13.2783 0.19962 13.8575C0.325991 14.1418 1.69501 15.574 4.06448 17.9329C6.94996 20.8079 7.81349 21.6082 8.13995 21.7136C8.67703 21.882 9.48792 21.7873 9.91968 21.4924C10.4252 21.1449 24.2734 7.30722 24.663 6.75961C24.9579 6.33837 25 6.20147 25 5.58014C25 4.96935 24.9579 4.82191 24.6841 4.43227C24.0943 3.60032 23.0097 3.27387 22.104 3.66351Z" fill="#93BB1C"/>
</svg>
