<svg width="20" height="20" viewBox="0 0 20 20" fill="none" xmlns="http://www.w3.org/2000/svg">
<g clip-path="url(#clip0_411_330)">
<path d="M1.81818 7.27273H0V19.0909C0 19.593 0.40703 20 0.909091 20H10.9091V18.1818V16.8962V11.8182C10.9091 11.3162 11.3161 10.9091 11.8182 10.9091H16.8962H18.1818H20V7.27273H18.1818H1.81818Z" fill="#93BB1C"/>
<path d="M16.8964 12.7273H12.7275V16.8962V19.4675L19.4677 12.7273H16.8964Z" fill="#93BB1C"/>
<path d="M19.0909 1.81818H13.9394V0.909091C13.9394 0.40703 13.5324 0 13.0303 0C12.5282 0 12.1212 0.40703 12.1212 0.909091V1.81818H7.87879V0.909091C7.87879 0.40703 7.47176 0 6.9697 0C6.46764 0 6.06061 0.40703 6.06061 0.909091V1.81818H0.909091C0.40703 1.81818 0 2.22521 0 2.72727V5.45455H1.81818H18.1818H20V2.72727C20 2.22521 19.593 1.81818 19.0909 1.81818Z" fill="#93BB1C"/>
</g>
<defs>
<clipPath id="clip0_411_330">
<rect width="20" height="20" fill="white"/>
</clipPath>
</defs>
</svg>
