<svg width="20" height="20" viewBox="0 0 20 20" fill="none" xmlns="http://www.w3.org/2000/svg">
<g clip-path="url(#clip0_109_290)">
<path d="M0.176506 19.7898C0.294145 19.9073 0.448313 19.9662 0.602482 19.9662C0.756651 19.9662 0.910819 19.9073 1.02846 19.7898L9.98311 10.8351L18.9378 19.7898C19.0554 19.9074 19.2097 19.9662 19.3638 19.9662C19.518 19.9662 19.6721 19.9074 19.7898 19.7898C20.025 19.5546 20.025 19.1731 19.7898 18.9378L10.8351 9.98311L19.7898 1.02841C20.025 0.793132 20.025 0.411735 19.7898 0.176458C19.5545 -0.0588193 19.1731 -0.0588193 18.9378 0.176458L9.98311 9.13116L1.02841 0.176554C0.793133 -0.0587229 0.411735 -0.0587229 0.176458 0.176554C-0.0588193 0.411783 -0.0588193 0.793228 0.176458 1.02851L9.13116 9.98316L0.176506 18.9378C-0.0587711 19.1731 -0.0587711 19.5545 0.176506 19.7898Z" fill="#93BB1C"/>
</g>
<defs>
<clipPath id="clip0_109_290">
<rect width="20" height="20" fill="white"/>
</clipPath>
</defs>
</svg>
