<svg width="30" height="30" viewBox="0 0 30 30" fill="none" xmlns="http://www.w3.org/2000/svg">
<g clip-path="url(#clip0_83_456)">
<path d="M10.0725 1.16016C8.27364 1.88086 6.76193 2.85938 5.36739 4.21875C2.59591 6.91407 1.10177 10.2656 0.955285 14.1211C0.767785 19.1484 3.23458 23.9004 7.47677 26.6953C12.5393 30.0352 19.2248 29.8125 24.1115 26.1387C24.7795 25.6348 25.9748 24.498 26.5139 23.8477C27.4748 22.6875 28.2951 21.293 28.8576 19.8633C29.1565 19.0898 29.1096 18.7266 28.6467 18.3809C28.3772 18.1875 28.0959 18.1934 27.3635 18.416C26.0393 18.8145 24.9201 18.9844 23.5432 18.9844C20.7834 18.9844 18.1818 18.0996 15.9084 16.3887C15.3049 15.9316 14.0686 14.6953 13.6115 14.0918C11.8889 11.8008 11.0158 9.23438 11.0158 6.42774C11.0158 5.07422 11.1858 3.95508 11.5842 2.63672C11.8068 1.9043 11.8127 1.61719 11.6193 1.35352C11.2678 0.890629 10.8752 0.837894 10.0725 1.16016ZM9.34005 3.9668C9.11154 5.17969 9.0881 7.19531 9.28732 8.4961C9.96114 12.8789 12.4514 16.6055 16.1955 18.8262C19.1311 20.5605 22.6643 21.2227 26.0041 20.6602C26.2326 20.6191 26.426 20.6016 26.426 20.625C26.426 20.7129 25.8635 21.6035 25.4709 22.1309C22.7346 25.8105 18.1115 27.7148 13.5705 27.041C9.0295 26.3672 5.20919 23.2734 3.60958 18.9668C1.85763 14.2617 3.10568 8.92383 6.76193 5.4668C7.07833 5.16797 7.55294 4.75782 7.82247 4.5586C8.29708 4.20704 9.28732 3.57422 9.37521 3.57422C9.39864 3.57422 9.38107 3.75 9.34005 3.9668Z" fill="#93BB1C"/>
</g>
<defs>
<clipPath id="clip0_83_456">
<rect width="30" height="30" fill="white"/>
</clipPath>
</defs>
</svg>
