<svg width="20" height="20" viewBox="0 0 20 20" fill="none" xmlns="http://www.w3.org/2000/svg">
<path d="M15.3594 6.625H13.9531C12.7882 6.625 11.8438 5.6806 11.8438 4.51562V3.10938C11.8438 1.9444 10.8993 1 9.73438 1H4.10938C2.9444 1 2 1.9444 2 3.10938V16.8906C2 18.0556 2.9444 19 4.10938 19H15.3594C16.5243 19 17.4688 18.0556 17.4688 16.8906V8.73438C17.4688 7.5694 16.5243 6.625 15.3594 6.625ZM13.6016 16.1875H5.86719C5.28468 16.1875 4.8125 15.7153 4.8125 15.1328C4.8125 14.5503 5.28468 14.0781 5.86719 14.0781H13.6016C14.1841 14.0781 14.6562 14.5503 14.6562 15.1328C14.6562 15.7153 14.1841 16.1875 13.6016 16.1875ZM13.6016 11.9688H5.86719C5.28468 11.9688 4.8125 11.4966 4.8125 10.9141C4.8125 10.3316 5.28468 9.85938 5.86719 9.85938H13.6016C14.1841 9.85938 14.6562 10.3316 14.6562 10.9141C14.6562 11.4966 14.1841 11.9688 13.6016 11.9688Z" fill="#93BB1C"/>
</svg>
