<svg width="20" height="20" viewBox="0 0 20 20" fill="none" xmlns="http://www.w3.org/2000/svg">
<path d="M19.6211 7.4531C19.7734 7.33205 20 7.4453 20 7.6367V15.625C20 16.6602 19.1602 17.5 18.125 17.5H1.875C0.839845 17.5 0 16.6602 0 15.625V7.6406C0 7.4453 0.222656 7.33595 0.378906 7.45705C1.25391 8.1367 2.41406 9 6.39845 11.8946C7.22265 12.4961 8.6133 13.7617 10 13.7539C11.3946 13.7656 12.8125 12.4727 13.6054 11.8946C17.5898 9 18.7461 8.1328 19.6211 7.4531ZM10 12.5C10.9062 12.5156 12.2109 11.3594 12.8672 10.8828C18.0508 7.1211 18.4453 6.79295 19.6406 5.85545C19.8672 5.6797 20 5.40625 20 5.1172V4.375C20 3.33984 19.1602 2.5 18.125 2.5H1.875C0.839845 2.5 0 3.33984 0 4.375V5.1172C0 5.40625 0.132812 5.6758 0.359375 5.85545C1.55469 6.78905 1.94922 7.1211 7.1328 10.8828C7.78905 11.3594 9.09375 12.5156 10 12.5Z" fill="#93BB1C"/>
</svg>
