<svg width="30" height="30" viewBox="0 0 30 30" fill="none" xmlns="http://www.w3.org/2000/svg">
<g clip-path="url(#clip0_414_353)">
<path d="M7.85455 5.87671L5.4 3.42466L3.47727 5.35616L5.91818 7.80822L7.85455 5.87671ZM0 13.6301H4.09091V16.3699H0V13.6301ZM13.6364 0H16.3636V4.0411H13.6364V0ZM24.6 3.41781L26.52 5.34521L24.0791 7.79726L22.1605 5.86849L24.6 3.41781ZM22.1455 24.1233L24.5864 26.589L26.5091 24.6575L24.0545 22.2055L22.1455 24.1233ZM25.9091 13.6301H30V16.3699H25.9091V13.6301ZM15 6.78082C10.4864 6.78082 6.81818 10.4658 6.81818 15C6.81818 19.5342 10.4864 23.2192 15 23.2192C19.5136 23.2192 23.1818 19.5342 23.1818 15C23.1818 10.4658 19.5136 6.78082 15 6.78082ZM15 20.4795C11.9864 20.4795 9.54545 18.0274 9.54545 15C9.54545 11.9726 11.9864 9.52055 15 9.52055C18.0136 9.52055 20.4545 11.9726 20.4545 15C20.4545 18.0274 18.0136 20.4795 15 20.4795ZM13.6364 25.9589H16.3636V30H13.6364V25.9589ZM3.47727 24.6438L5.4 26.5753L7.84091 24.1096L5.91818 22.1781L3.47727 24.6438Z" fill="#4E4E4E"/>
</g>
<defs>
<clipPath id="clip0_414_353">
<rect width="30" height="30" fill="white"/>
</clipPath>
</defs>
</svg>
