<svg width="30" height="30" viewBox="0 0 30 30" fill="none" xmlns="http://www.w3.org/2000/svg">
<g clip-path="url(#clip0_414_356)">
<path d="M23.8815 5.13735C22.0608 1.99532 18.8269 0.0757324 15.2307 0.00237305C15.0772 -0.000791016 14.9227 -0.000791016 14.7691 0.00237305C11.173 0.0757324 7.93911 1.99532 6.11836 5.13735C4.25731 8.34899 4.20639 12.2068 5.98213 15.4571L13.4214 29.0735C13.4247 29.0795 13.4281 29.0856 13.4315 29.0915C13.7588 29.6604 14.3452 30 15.0001 30C15.6549 30 16.2413 29.6604 16.5685 29.0915C16.572 29.0856 16.5753 29.0795 16.5786 29.0735L24.0179 15.4571C25.7935 12.2068 25.7426 8.34899 23.8815 5.13735V5.13735ZM14.9999 13.5938C12.6737 13.5938 10.7812 11.7013 10.7812 9.37503C10.7812 7.0488 12.6737 5.15628 14.9999 5.15628C17.3262 5.15628 19.2187 7.0488 19.2187 9.37503C19.2187 11.7013 17.3262 13.5938 14.9999 13.5938Z" fill="#A7D41F"/>
</g>
<defs>
<clipPath id="clip0_414_356">
<rect width="30" height="30" fill="white"/>
</clipPath>
</defs>
</svg>
