<svg width="30" height="30" viewBox="0 0 30 30" fill="none" xmlns="http://www.w3.org/2000/svg">
<path d="M14.1794 0.914068C10.9392 1.32422 8.42554 3.36329 7.44702 6.36915C7.12476 7.34766 7.07788 7.80469 7.04859 10.166L7.01343 12.3398L6.62085 12.4043C5.66577 12.5508 4.93921 13.1484 4.56421 14.0918L4.42359 14.4434L4.40601 20.4785C4.39429 24.8027 4.40601 26.625 4.45874 26.9121C4.63452 27.9902 5.4314 28.8281 6.49195 29.0566C6.7146 29.1035 9.11695 29.1211 15.0173 29.1211C23.8943 29.1211 23.5369 29.1328 24.1873 28.8223C24.8494 28.5 25.406 27.7148 25.5408 26.9121C25.5935 26.625 25.6052 24.8027 25.5935 20.4785L25.5759 14.4434L25.4353 14.0918C25.0603 13.1484 24.3337 12.5508 23.3787 12.4043L22.9861 12.3398L22.9509 10.166C22.9216 7.80469 22.8748 7.34766 22.5525 6.36915C21.9021 4.3711 20.4959 2.7129 18.656 1.7754C17.988 1.42969 17.2146 1.16016 16.5173 1.0254C16.0369 0.931646 14.5896 0.861334 14.1794 0.914068ZM16.2771 2.77735C18.2576 3.19922 19.9099 4.56446 20.7009 6.44532C21.0994 7.38282 21.1111 7.48243 21.1345 10.0313L21.158 12.3633H14.9998H8.84156L8.86499 10.0313C8.88257 7.86915 8.89429 7.67579 9.01148 7.25977C9.35132 6.05274 9.89624 5.1504 10.781 4.31251C11.7712 3.38087 12.8494 2.88868 14.3845 2.67188C14.7126 2.62501 15.8494 2.68946 16.2771 2.77735ZM23.3787 14.2324C23.49 14.291 23.6365 14.4316 23.7009 14.5371C23.8181 14.7305 23.8181 14.8418 23.8181 20.7422C23.8181 26.625 23.8181 26.7539 23.7009 26.9414C23.6365 27.0469 23.4783 27.1816 23.3494 27.2461C23.1091 27.3633 22.9568 27.3633 14.9998 27.3633C7.04273 27.3633 6.89038 27.3633 6.65015 27.2461C6.52124 27.1816 6.36304 27.0469 6.29859 26.9414C6.1814 26.7539 6.1814 26.625 6.1814 20.7422C6.1814 14.8066 6.1814 14.7363 6.29859 14.5313C6.3689 14.4199 6.50952 14.2793 6.62085 14.2266C6.81421 14.127 7.3357 14.1211 14.9998 14.1211C22.863 14.1211 23.1853 14.127 23.3787 14.2324Z" fill="#93BB1C"/>
<path d="M14.2967 16.8633C14.0858 16.916 13.7987 17.0332 13.6522 17.1211C12.492 17.8008 12.035 19.3066 12.6092 20.5254C12.8612 21.0527 13.283 21.4922 13.7635 21.7207L14.1151 21.8848L14.1209 22.9688C14.1209 23.8828 14.1385 24.0879 14.2264 24.2578C14.5135 24.8379 15.4862 24.8379 15.7733 24.2578C15.8612 24.0879 15.8787 23.8828 15.8787 22.9688L15.8846 21.8848L16.2362 21.7207C17.0037 21.3574 17.5604 20.5195 17.619 19.6465C17.7127 18.2812 16.91 17.1504 15.6385 16.8457C15.158 16.7344 14.7713 16.7402 14.2967 16.8633ZM15.5389 18.6973C16.0252 19.043 15.9608 19.9336 15.4334 20.1855C15.1932 20.2969 14.8065 20.2969 14.5662 20.1855C14.0741 19.9512 13.9745 19.1074 14.4022 18.7324C14.6717 18.4863 15.2225 18.4746 15.5389 18.6973Z" fill="#93BB1C"/>
</svg>
