<svg width="20" height="20" viewBox="0 0 20 20" fill="none" xmlns="http://www.w3.org/2000/svg">
<g clip-path="url(#clip0_409_305)">
<path d="M19.4552 14.678L16.6641 11.8869C15.6673 10.8901 13.9727 11.2889 13.574 12.5847C13.275 13.4819 12.2782 13.9803 11.381 13.7809C9.38741 13.2825 6.69603 10.6908 6.19763 8.59746C5.89859 7.7003 6.49667 6.70349 7.3938 6.40448C8.68965 6.00576 9.08837 4.31119 8.09156 3.31438L5.3005 0.523324C4.50306 -0.174441 3.30689 -0.174441 2.60912 0.523324L0.71519 2.41726C-1.17874 4.41087 0.914551 9.69395 5.59954 14.3789C10.2845 19.0639 15.5676 21.2569 17.5612 19.2633L19.4552 17.3694C20.153 16.5719 20.153 15.3757 19.4552 14.678Z" fill="#93BB1C"/>
</g>
<defs>
<clipPath id="clip0_409_305">
<rect width="20" height="20" fill="white"/>
</clipPath>
</defs>
</svg>
