<svg width="12" height="12" viewBox="0 0 12 12" fill="none" xmlns="http://www.w3.org/2000/svg">
<g clip-path="url(#clip0_480_185)">
<path d="M5.27753 0C2.36756 0 0 2.37782 0 5.3004C0 8.22298 2.36756 10.6008 5.27753 10.6008C6.4882 10.6008 7.60149 10.1848 8.49295 9.49367L10.8415 11.8004C11.1065 12.0665 11.5362 12.0665 11.8012 11.8004C12.0663 11.5342 12.0663 11.1026 11.8012 10.8364L9.45271 8.52976C10.1409 7.63443 10.5551 6.51631 10.5551 5.3004C10.5551 2.37782 8.1875 0 5.27753 0ZM5.27753 1.17787C7.54071 1.17787 9.38228 3.02741 9.38228 5.3004C9.38228 7.57339 7.54071 9.42293 5.27753 9.42293C3.01435 9.42293 1.17278 7.57339 1.17278 5.3004C1.17278 3.02741 3.01435 1.17787 5.27753 1.17787Z" fill="#93BB1C"/>
</g>
<defs>
<clipPath id="clip0_480_185">
<rect width="12" height="12" fill="white"/>
</clipPath>
</defs>
</svg>
