<svg width="20" height="20" viewBox="0 0 20 20" fill="none" xmlns="http://www.w3.org/2000/svg">
<g clip-path="url(#clip0_83_313)">
<path d="M7.82604 0C3.51085 0 0 3.51085 0 7.82604C0 12.1412 3.51085 15.6521 7.82604 15.6521C9.62134 15.6521 11.2722 15.0379 12.5942 14.0174L18.282 19.7052C18.675 20.0983 19.3122 20.0983 19.7052 19.7052C20.0983 19.3122 20.0983 18.675 19.7052 18.282L14.0174 12.5942C15.0379 11.2722 15.6521 9.62134 15.6521 7.82604C15.6521 3.51085 12.1412 0 7.82604 0ZM7.82604 1.73912C11.1821 1.73912 13.913 4.46997 13.913 7.82604C13.913 11.1821 11.1821 13.913 7.82604 13.913C4.46997 13.913 1.73912 11.1821 1.73912 7.82604C1.73912 4.46997 4.46997 1.73912 7.82604 1.73912Z" fill="#A7D41F"/>
</g>
<defs>
<clipPath id="clip0_83_313">
<rect width="20" height="20" fill="white"/>
</clipPath>
</defs>
</svg>
