<svg width="20" height="20" viewBox="0 0 25 25" fill="none" xmlns="http://www.w3.org/2000/svg">
<g clip-path="url(#clip0_469_2)">
<path d="M12.5 24.2188C18.1091 24.2188 22.6562 19.6716 22.6562 14.0625C22.6562 8.45336 18.1091 3.90625 12.5 3.90625C6.89086 3.90625 2.34375 8.45336 2.34375 14.0625C2.34375 19.6716 6.89086 24.2188 12.5 24.2188Z" stroke="#97C21D" stroke-width="2" stroke-miterlimit="10" stroke-linecap="round" stroke-linejoin="round"/>
<path d="M12.5 15.625C13.3629 15.625 14.0625 14.9254 14.0625 14.0625C14.0625 13.1996 13.3629 12.5 12.5 12.5C11.6371 12.5 10.9375 13.1996 10.9375 14.0625C10.9375 14.9254 11.6371 15.625 12.5 15.625Z" stroke="#97C21D" stroke-width="2" stroke-miterlimit="10" stroke-linecap="round" stroke-linejoin="round"/>
<path d="M12.5 7.03125V12.5" stroke="#97C21D" stroke-width="2" stroke-miterlimit="10" stroke-linecap="round" stroke-linejoin="round"/>
<path d="M17.9688 14.0625H14.0625" stroke="#97C21D" stroke-width="2" stroke-miterlimit="10" stroke-linecap="round" stroke-linejoin="round"/>
<path d="M20.3125 7.03125L21.875 5.46875" stroke="#97C21D" stroke-width="2" stroke-miterlimit="10" stroke-linecap="round" stroke-linejoin="round"/>
<path d="M20.3125 3.90625L23.4375 7.03125" stroke="#97C21D" stroke-width="2" stroke-miterlimit="10" stroke-linecap="round" stroke-linejoin="round"/>
<path d="M10.9375 4.0625V1.5625C10.9375 1.09375 11.25 0.78125 11.7188 0.78125H13.2812C13.75 0.78125 14.0625 1.09375 14.0625 1.5625V4.0625" stroke="#97C21D" stroke-width="2" stroke-miterlimit="10" stroke-linecap="round" stroke-linejoin="round"/>
</g>
<defs>
<clipPath id="clip0_469_2">
<rect width="25" height="25" fill="white"/>
</clipPath>
</defs>
</svg>
