<svg width="24" height="24" viewBox="0 0 24 24" fill="none" xmlns="http://www.w3.org/2000/svg">
<g clip-path="url(#clip0_557_290)">
<path d="M24 12C24 18.6274 18.6274 24 12 24C5.37258 24 0 18.6274 0 12C0 5.37258 5.37258 0 12 0C18.6274 0 24 5.37258 24 12Z" fill="#2B3131"/>
<path d="M24 12C24 18.6274 18.6274 24 12 24C5.37258 24 0 18.6274 0 12C0 5.37258 5.37258 0 12 0C18.6274 0 24 5.37258 24 12Z" fill="url(#paint0_linear_557_290)"/>
<path d="M24 12C24 18.6274 18.6274 24 12 24C5.37258 24 0 18.6274 0 12C0 5.37258 5.37258 0 12 0C18.6274 0 24 5.37258 24 12Z" fill="#93BB1C"/>
<path d="M22 12C22 17.5229 17.5229 22 12 22C6.47716 22 2 17.5229 2 12C2 6.47716 6.47716 2 12 2C17.5229 2 22 6.47716 22 12Z" fill="url(#paint1_linear_557_290)"/>
</g>
<defs>
<linearGradient id="paint0_linear_557_290" x1="1.93461e-07" y1="12.0816" x2="24" y2="12.0816" gradientUnits="userSpaceOnUse">
<stop stop-color="#222727"/>
<stop offset="1" stop-color="#191D1D"/>
</linearGradient>
<linearGradient id="paint1_linear_557_290" x1="1.0625" y1="12.0744" x2="22.9375" y2="12.0744" gradientUnits="userSpaceOnUse">
<stop stop-color="#222727"/>
<stop offset="1" stop-color="#191D1D"/>
</linearGradient>
<clipPath id="clip0_557_290">
<rect width="24" height="24" fill="white"/>
</clipPath>
</defs>
</svg>
