<svg width="20" height="20" viewBox="0 0 20 20" fill="none" xmlns="http://www.w3.org/2000/svg">
<g clip-path="url(#clip0_122_262)">
<path d="M9.51172 0.0234375C9.44922 0.03125 9.25781 0.0585938 9.08594 0.0820312C8.125 0.210938 6.97266 0.753906 6.19141 1.44531C5.20312 2.31641 4.50391 3.57422 4.29297 4.86328C4.21484 5.33203 4.22656 6.38672 4.3125 6.81641C4.58984 8.22656 5.38672 9.53125 6.46094 10.3438L6.72656 10.5469L6.61719 10.5859C6.14453 10.7656 5.94141 10.8555 5.53906 11.0547C3.80469 11.9258 2.39453 13.2422 1.39062 14.9219C0.570312 16.2969 0.109375 17.832 0.015625 19.5313L-0.0117188 20H0.773438H1.5625V19.8086C1.5625 18.4844 2.11328 16.6562 2.85156 15.5312C3.98828 13.793 5.51172 12.6016 7.36719 11.9961C9.13281 11.418 10.8672 11.418 12.6328 11.9961C14.4883 12.6016 16.0117 13.793 17.1484 15.5312C17.8867 16.6562 18.4375 18.4844 18.4375 19.8086V20H19.2266H20.0117L19.9844 19.5313C19.8906 17.832 19.4297 16.2969 18.6094 14.9219C17.6055 13.2422 16.1953 11.9258 14.4609 11.0547C14.0586 10.8555 13.8555 10.7656 13.3828 10.5859L13.2734 10.5469L13.5391 10.3438C14.6133 9.53125 15.4102 8.22656 15.6875 6.81641C15.7734 6.38672 15.7852 5.33203 15.707 4.86328C15.5391 3.83594 15.0195 2.74609 14.332 1.96484C13.4766 1 12.2734 0.320314 11.0195 0.0937519C10.7188 0.0390644 9.72266 -0.0078125 9.51172 0.0234375ZM10.6602 1.62109C12.957 1.99609 14.5273 4.16016 14.1602 6.44141C13.7852 8.73828 11.6211 10.3086 9.33984 9.94141C7.04297 9.56641 5.47266 7.40234 5.83984 5.12109C6.21484 2.82422 8.37891 1.25391 10.6602 1.62109Z" fill="#93BB1C"/>
</g>
<defs>
<clipPath id="clip0_122_262">
<rect width="20" height="20" fill="white"/>
</clipPath>
</defs>
</svg>
